<?xml version="1.0" encoding="UTF-8" standalone="no"?>
<svg width="14px" height="14px" viewBox="0 0 14 14" version="1.1" xmlns="http://www.w3.org/2000/svg" xmlns:xlink="http://www.w3.org/1999/xlink">
    <!-- Generator: Sketch 3.8.3 (29802) - http://www.bohemiancoding.com/sketch -->
    <title>Icon</title>
    <desc>Created with Sketch.</desc>
    <defs></defs>
    <g id="Page-1" stroke="none" stroke-width="1" fill="none" fill-rule="evenodd">
        <g id="Ecommerce" transform="translate(-180.000000, -5886.000000)" fill="#BDC7CF">
            <g id="Cart-#1-Copy" transform="translate(150.000000, 5772.000000)">
                <g id="#1" transform="translate(30.000000, 81.000000)">
                    <path d="M12.3880257,33.3338025 L7.45682327,38.2650049 C7.25459731,38.4667123 6.92792459,38.4667123 6.72621715,38.2650049 L1.61249282,33.1512806 C1.41078538,32.9495731 1.08359414,32.9495731 0.881886702,33.1512806 L0.151280579,33.8818867 C-0.0504268598,34.0835941 -0.0504268598,34.4102669 0.151280579,34.6124928 L5.26500491,39.7262172 C5.46671235,39.9279246 5.46671235,40.2545973 5.26500491,40.4568233 L0.333802478,45.3875072 C0.132095039,45.5892146 0.132095039,45.9164059 0.333802478,46.1181133 L1.0644086,46.8487194 C1.26611604,47.0504269 1.59330728,47.0504269 1.79501472,46.8487194 L6.72621715,41.917517 C6.92792459,41.7158096 7.25459731,41.7158096 7.45682327,41.917517 L12.2049853,46.6661975 C12.4066927,46.867905 12.733884,46.867905 12.9355914,46.6661975 L13.6661975,45.9355914 C13.867905,45.733884 13.867905,45.4066927 13.6661975,45.2049853 L8.91751699,40.4568233 C8.71580955,40.2545973 8.71580955,39.9279246 8.91751699,39.7262172 L13.8487194,34.7950147 C14.0504269,34.5933073 14.0504269,34.266116 13.8487194,34.0644086 L13.1181133,33.3338025 C12.9164059,33.132095 12.5897331,33.132095 12.3880257,33.3338025" id="Icon"></path>
                </g>
            </g>
        </g>
    </g>
</svg>
